Patient4_TMGait_0pt8_01_left_52_EMG.mot
version=1
nRows=23
nColumns=33
inDegrees=no
endheader
time	1LAddLong	2LGlutMax	3LGlutMed	4LIliopsoas	5LSemiMemb	6LBicFemLong	7LRecFem	8LVastMed	9LVastLat	10LGasMed	11LTibAnt	12lTibPost	13LPeroneusLong	14LSol	15LExtDigLong	16LFlexDigLong	17RAddLong	18RGlutMax	19RGlutMed	20RIliopsoas	21RSemiMemb	22RBicFemLong	23RRecFem	24RVastMed	25RVastLat	26RGasMed	27RTibAnt	28RTibPost	29RPeroneusLong	30RSol	31RExtDigLong	32RFlexDigLong
58.79	0.00412	0.31006	0.37064	-0.007782	-0.03952	-0.056152	-0.38055	-0.002899	-0.011749	-0.12665	0.007324	-0.032959	-0.027466	-0.11078	0.039673	-0.038757	0.013885	-0.15717	-0.18112	0.013885	0.35904	0.54138	-0.31876	-0.011902	-0.22827	-0.007324	0.008087	-0.005188	0.13519	-0.074768	0.003052	-0.014954
58.791	0.011749	0.27985	0.37064	0.005951	-0.028687	-0.093231	-0.40741	-0.000763	-0.007019	-0.070038	0.001526	-0.031433	-0.048218	-0.068207	0.035858	-0.032501	0.024414	-0.12283	-0.067139	-0.006714	0.14542	0.76294	-0.3923	0.097961	-0.16769	-0.010376	-0.11108	-0.009918	0.23025	0.032349	-0.000153	-0.00824
58.792	0.003204	0.30151	0.37231	0.010071	-0.018005	-0.10605	-0.37293	0.007324	-0.012817	0.026398	0.004578	-0.030365	-0.049744	0.067291	0.036774	-0.077667	0.019836	-0.093384	0.069275	-0.016479	0.011292	0.84686	-0.32028	-0.071259	-0.084076	-0.008545	-0.1004	-0.004272	0.11688	0.10666	-0.001068	-0.00351
58.793	0.009308	0.29709	0.3537	0.012207	0.015259	-0.13077	-0.33768	0.001068	-0.018616	-0.11627	-0.006561	-0.019531	0.005035	-0.023041	0.038757	-0.93887	0.048981	-0.077515	0.47134	-0.027924	0.030212	0.75806	-0.37308	-0.29739	0.093536	-0.010376	-0.042725	-0.010376	-0.08667	0.070648	-0.001678	-0.00061
58.794	0.02121	0.31082	0.35599	0.022736	0.042572	-0.087128	-0.34347	0.000916	-0.016022	-0.15823	-0.005341	-0.021667	-0.078125	-0.54779	0.024261	0.37231	0.046997	-0.10117	0.31311	-0.02594	0.13306	0.64133	-0.49149	-0.2565	0.58319	-0.006714	0.11597	-0.011444	-0.089569	0.046997	-0.001068	-0.001678
58.795	0.011749	0.28564	0.34866	0.014038	0.071411	-0.009155	-0.31525	0.002747	-0.021667	0.036621	0.000305	-0.021515	-0.005951	-0.53955	0.022583	0.01297	0.014038	-0.17853	-0.024261	-0.00824	0.30029	0.58044	-0.55878	-0.17044	0.58609	-0.010986	0.13092	-0.009155	0.16998	-0.000916	0.004272	-0.002441
58.796	0.010986	0.23789	0.35614	0.005341	0.054016	0.088196	-0.31601	0.008087	-0.030518	0.35339	-0.004425	-0.025482	0.053406	-0.28244	0.008698	0.21255	0.008698	-0.11566	0.072327	-0.002899	0.74005	0.42908	-0.47363	-0.043793	0.35034	-0.008545	-0.021667	-0.005646	0.002441	0.023499	0.000916	-0.007019
58.797	0.008087	0.26093	0.35996	-0.015564	0.034027	0.112	-0.31204	0.00824	-0.036011	0.84564	-0.00473	-0.11658	0.16861	-0.7196	-0.030212	0.18936	0.023804	0.083466	-0.19669	0.008545	0.59097	0.29678	-0.35385	-0.19363	0.13016	-0.009766	-0.10925	-0.008545	-0.16617	-0.027771	-0.001526	-0.007629
58.798	0.007629	0.28061	0.31845	-0.005493	0.005951	0.06897	-0.2681	0.009308	-0.027466	0.57175	-0.010223	0.014954	0.16617	-0.6543	-0.043945	-0.053406	0.058594	0.24628	-0.38559	-0.003052	0.40756	0.14618	-0.26581	-0.49408	-0.048065	-0.009918	-0.032654	-0.007019	0.62302	-0.060883	-0.000916	-0.002899
58.799	0.002899	0.28641	0.28976	0.006714	0.003204	0.052643	-0.28839	0.005035	-0.038147	-0.35889	-0.006256	0.14908	0.17853	-0.11139	-0.037842	0.44846	0.10742	0.40619	-0.26718	0.020905	0.11948	0.025482	-0.17731	-0.5452	-0.17746	-0.015106	-0.059509	0.005341	0.38727	-0.02182	0.001068	-0.00412
58.8	0.013733	0.28641	0.31693	-0.001373	0.004883	0.054779	-0.27908	0.006866	-0.021515	-0.18509	-0.001373	-0.11414	0.09903	0.35675	-0.047455	-0.012817	0.12482	0.40054	0.34805	-0.032806	-0.014191	-0.029755	-0.11795	-0.59937	-0.17731	-0.013733	0.003967	-0.005646	0.16281	-0.00824	-0.000763	-0.007019
58.801	0.005341	0.25848	0.40268	-0.019379	0.001526	0.070801	-0.26169	0.008698	-0.029144	0.12756	0.000916	0.35294	-0.052338	0.41672	-0.076599	-0.17334	0.13962	0.19577	0.85938	-0.077057	0.017548	0.005035	-0.14679	-0.27573	-0.13657	-0.019379	0.004578	-0.009766	0.048981	-0.010529	0.001068	-0.013733
58.802	0.001526	0.25955	0.49835	-0.017853	-0.020447	0.085754	-0.25818	0.007629	-0.036774	0.24918	-0.007477	0.15945	0.003967	0.31448	-0.073853	-0.14847	0.020142	0.065308	1.0139	-0.025482	0.091248	0.1828	-0.20569	0.12436	-0.24628	-0.015411	-0.004272	-0.00351	-0.025482	0.014191	0	-0.002747
58.803	0.006409	0.25085	0.48492	-0.031281	-0.018616	0.053253	-0.27496	0.005798	-0.027161	0.22492	-0.002441	-0.6247	0.043488	0.11169	-0.046844	-0.10071	-0.083466	-0.15305	0.39047	0.066376	0.095215	0.4335	-0.17654	0.23529	-0.25543	-0.004425	-0.02594	-0.007935	-0.043793	0.000305	-0.005798	-0.001831
58.804	0.009155	0.23117	0.45212	0.005493	-0.006561	0.051117	-0.25421	0.005493	-0.030212	0.050201	0.006714	-0.062256	0.044861	-0.49164	-0.033264	0.20615	-0.075531	-0.36484	-0.35965	0.025787	0.39215	0.56198	-0.10941	0.33798	-0.21835	-0.013275	-0.017548	-0.000763	0.00824	-0.062714	0.002594	-0.018463
58.805	0.006104	0.23056	0.44876	0.026245	-0.005341	0.1001	-0.21118	0.011292	-0.02655	-0.15762	0.002594	0.036926	-0.03006	-0.74524	-0.017548	-0.27374	-0.086975	-0.57388	-0.39703	-0.047455	0.20599	0.45563	-0.1207	0.75073	-0.1413	-0.00946	0.010986	-0.003815	0.048981	-0.002899	-0.00061	-0.019226
58.806	0.004578	0.2153	0.49896	0.009918	0.012665	0.088501	-0.20142	0.002441	-0.040894	-0.24719	0.007782	0.15823	-0.067596	-0.34973	-0.029907	0.23102	-0.084381	-0.49408	0.005798	-0.14786	0.22827	0.23132	-0.22598	0.85663	-0.1506	-0.007324	0.037842	-0.00824	0.048676	0.046692	-0.002441	-0.009155
58.807	0.004425	0.14984	0.53268	0.00351	0.014954	0.061035	-0.19348	0.0354	-0.042572	-0.21454	0.006409	0.45197	-0.04715	0.14053	-0.014343	0.082092	-0.052032	-0.67535	0.17075	-0.15564	0.25482	0.16266	-0.17883	0.74493	-0.10132	-0.011597	0.058899	-0.005035	0.021515	0.067749	-0.001831	-0.014801
58.808	0.008087	0.061798	0.55908	-0.00885	0.020905	0.060425	-0.19012	0.021362	-0.03067	-0.17303	0.003967	-0.029907	-0.071106	0.40039	0.007782	-0.041351	-0.054321	-0.75073	-0.24689	-0.061951	0.15945	0.21088	-0.074158	0.55191	0.009918	-0.011902	0.075531	-0.00351	0.024414	-0.013428	-0.002289	-0.007477
58.809	0.006866	0.060425	0.5838	-0.001678	0.009766	0.060577	-0.16708	0.004883	-0.0177	-0.12756	0.006561	-0.48706	-0.003662	0.33951	0.017395	-0.067596	-0.006256	-0.66559	-0.41138	-0.043793	0.11139	0.15991	-0.018616	0.42633	0.091248	-0.016632	0.091553	-0.013123	-0.027313	-0.029755	-0.00061	-0.004883
58.81	0.010223	0.15091	0.5661	-0.001984	-0.001678	0.030212	-0.17624	0.004578	-0.019989	-0.055847	0.00473	0.027161	0.045319	0.30258	0.024414	-0.052185	0.035095	-0.58731	0.13016	0.016022	0.046082	0.1297	0.057526	0.32669	0.26276	-0.027008	0.16174	-0.008545	-0.035858	-0.026703	-0.000153	0.002136
58.811	0.007782	0.16296	0.58273	-0.002747	-0.010223	0.023804	-0.14481	0.004578	-0.023651	-0.039215	0.008392	0.2356	-0.013275	0.35065	0.015869	-0.047455	0.067596	-0.6076	-0.39459	0.20691	0.012817	0.29022	0.007172	0.42252	0.30991	-0.0383	0.17838	-0.007935	-0.045166	-0.029297	0	0
58.812	0.006104	0.12146	0.58182	0.004883	-0.022278	0.021057	-0.13763	0.007782	-0.023956	-0.041809	0.001221	-0.21149	0.02533	0.4921	0.017395	-0.046692	0.08194	-0.72006	-0.59097	0.32684	-0.032043	0.45395	0.027924	0.18326	0.21149	-0.037537	0.1178	-0.015564	-0.049744	0.003357	-0.002899	-0.002594
